<svg xmlns="http://www***REMOVED***w3***REMOVED***org/2000/svg" fill="none" viewBox="0 0 394 80"><path fill="#000" d="M262 0h68***REMOVED***5v12***REMOVED***7h-27***REMOVED***2v66***REMOVED***6h-13***REMOVED***6V12***REMOVED***7H262V0ZM149 0v12***REMOVED***7H94v20***REMOVED***4h44***REMOVED***3v12***REMOVED***6H94v21h55v12***REMOVED***6H80***REMOVED***5V0h68***REMOVED***7zm34***REMOVED***3 0h-17***REMOVED***8l63***REMOVED***8 79***REMOVED***4h17***REMOVED***9l-32-39***REMOVED***7 32-39***REMOVED***6h-17***REMOVED***9l-23 28***REMOVED***6-23-28***REMOVED***6zm18***REMOVED***3 56***REMOVED***7-9-11-27***REMOVED***1 33***REMOVED***7h17***REMOVED***8l18***REMOVED***3-22***REMOVED***7z"/><path fill="#000" d="M81 79***REMOVED***3 17 0H0v79***REMOVED***3h13***REMOVED***6V17l50***REMOVED***2 62***REMOVED***3H81Zm252***REMOVED***6-***REMOVED***4c-1 0-1***REMOVED***8-***REMOVED***4-2***REMOVED***5-1s-1***REMOVED***1-1***REMOVED***6-1***REMOVED***1-2***REMOVED***6***REMOVED***3-1***REMOVED***8 1-2***REMOVED***5 1***REMOVED***6-1 2***REMOVED***6-1 1***REMOVED***8***REMOVED***3 2***REMOVED***5 1a3***REMOVED***4 3***REMOVED***4 0 0 1 ***REMOVED***6 4***REMOVED***3 3***REMOVED***7 3***REMOVED***7 0 0 1-3 1***REMOVED***8zm23***REMOVED***2-33***REMOVED***5h6v23***REMOVED***3c0 2***REMOVED***1-***REMOVED***4 4-1***REMOVED***3 5***REMOVED***5a9***REMOVED***1 9***REMOVED***1 0 0 1-3***REMOVED***8 3***REMOVED***5c-1***REMOVED***6***REMOVED***8-3***REMOVED***5 1***REMOVED***3-5***REMOVED***7 1***REMOVED***3-2 0-3***REMOVED***7-***REMOVED***4-5***REMOVED***3-1s-2***REMOVED***8-1***REMOVED***8-3***REMOVED***7-3***REMOVED***2c-***REMOVED***9-1***REMOVED***3-1***REMOVED***4-3-1***REMOVED***4-5h6c***REMOVED***1***REMOVED***8***REMOVED***3 1***REMOVED***6***REMOVED***7 2***REMOVED***2s1 1***REMOVED***2 1***REMOVED***6 1***REMOVED***5c***REMOVED***7***REMOVED***4 1***REMOVED***5***REMOVED***5 2***REMOVED***4***REMOVED***5 1 0 1***REMOVED***8-***REMOVED***2 2***REMOVED***4-***REMOVED***6a4 4 0 0 0 1***REMOVED***6-1***REMOVED***8c***REMOVED***3-***REMOVED***8***REMOVED***5-1***REMOVED***8***REMOVED***5-3V45***REMOVED***5zm30***REMOVED***9 9***REMOVED***1a4***REMOVED***4 4***REMOVED***4 0 0 0-2-3***REMOVED***3 7***REMOVED***5 7***REMOVED***5 0 0 0-4***REMOVED***3-1***REMOVED***1c-1***REMOVED***3 0-2***REMOVED***4***REMOVED***2-3***REMOVED***3***REMOVED***5-***REMOVED***9***REMOVED***4-1***REMOVED***6 1-2 1***REMOVED***6a3***REMOVED***5 3***REMOVED***5 0 0 0-***REMOVED***3 4c***REMOVED***3***REMOVED***5***REMOVED***7***REMOVED***9 1***REMOVED***3 1***REMOVED***2l1***REMOVED***8 1 2 ***REMOVED***5 3***REMOVED***2***REMOVED***8c1***REMOVED***3***REMOVED***3 2***REMOVED***5***REMOVED***7 3***REMOVED***7 1***REMOVED***2a13 13 0 0 1 3***REMOVED***2 1***REMOVED***8 8***REMOVED***1 8***REMOVED***1 0 0 1 3 6***REMOVED***5c0 2-***REMOVED***5 3***REMOVED***7-1***REMOVED***5 5***REMOVED***1a10 10 0 0 1-4***REMOVED***4 3***REMOVED***5c-1***REMOVED***8***REMOVED***8-4***REMOVED***1 1***REMOVED***2-6***REMOVED***8 1***REMOVED***2-2***REMOVED***6 0-4***REMOVED***9-***REMOVED***4-6***REMOVED***8-1***REMOVED***2-2-***REMOVED***8-3***REMOVED***4-2-4***REMOVED***5-3***REMOVED***5a10 10 0 0 1-1***REMOVED***7-5***REMOVED***6h6a5 5 0 0 0 3***REMOVED***5 4***REMOVED***6c1 ***REMOVED***4 2***REMOVED***2***REMOVED***6 3***REMOVED***4***REMOVED***6 1***REMOVED***3 0 2***REMOVED***5-***REMOVED***2 3***REMOVED***5-***REMOVED***6 1-***REMOVED***4 1***REMOVED***8-1 2***REMOVED***4-1***REMOVED***7a4 4 0 0 0 ***REMOVED***8-2***REMOVED***4c0-***REMOVED***9-***REMOVED***2-1***REMOVED***6-***REMOVED***7-2***REMOVED***2a11 11 0 0 0-2***REMOVED***1-1***REMOVED***4l-3***REMOVED***2-1-3***REMOVED***8-1c-2***REMOVED***8-***REMOVED***7-5-1***REMOVED***7-6***REMOVED***6-3***REMOVED***2a7***REMOVED***2 7***REMOVED***2 0 0 1-2***REMOVED***4-5***REMOVED***7 8 8 0 0 1 1***REMOVED***7-5 10 10 0 0 1 4***REMOVED***3-3***REMOVED***5c2-***REMOVED***8 4-1***REMOVED***2 6***REMOVED***4-1***REMOVED***2 2***REMOVED***3 0 4***REMOVED***4***REMOVED***4 6***REMOVED***2 1***REMOVED***2 1***REMOVED***8***REMOVED***8 3***REMOVED***2 2 4***REMOVED***3 3***REMOVED***4 1 1***REMOVED***4 1***REMOVED***5 3 1***REMOVED***5 5h-5***REMOVED***8z"/></svg>